<?xml version="1.0" encoding="UTF-8"?>
<svg id="Layer_1" xmlns="http://www.w3.org/2000/svg" version="1.1" viewBox="0 0 158.89 36.29">
  <defs>
    <style>
      .st0 {
        fill: #231f20;
      }

      .st1 {
        fill: #37237b;
      }
    </style>
  </defs>
  <path class="st1" d="M6.76,2.62v11.62h-2.55V2.62H.07V.26h10.83v2.37h-4.14Z"/>
  <path class="st1" d="M18.84,14.25v-6.33c0-1.18-.39-1.91-1.7-1.91-1.48,0-2.11,1.58-2.11,2.84v5.41h-2.47V0h2.47v5.07c.59-.87,1.74-1.34,2.8-1.34,2.19,0,3.47,1.56,3.47,3.67v6.85h-2.47Z"/>
  <path class="st1" d="M23.4,2.57V.02h2.64v2.55h-2.64ZM23.48,14.25V3.99h2.51v10.26h-2.51Z"/>
  <path class="st1" d="M33.82,6.18c-1.74,0-2.64,1.24-2.64,2.9v5.17h-2.49V3.99h2.09l.22,1.54c.47-1.18,1.7-1.68,2.9-1.68.26,0,.51.02.77.06v2.37c-.28-.06-.57-.1-.85-.1Z"/>
  <path class="st1" d="M42.78,14.25l-.16-1.12c-.61.95-1.76,1.36-2.88,1.36-1.03,0-1.87-.35-2.51-.87-1.22-1.01-1.82-2.55-1.82-4.48s.61-3.57,1.84-4.58c.63-.51,1.46-.83,2.51-.83,1.3,0,2.25.43,2.68.97V0h2.47v14.25h-2.13ZM40.24,5.8c-.77,0-1.3.35-1.66.81-.51.67-.65,1.6-.65,2.49s.14,1.84.65,2.51c.36.45.89.81,1.66.81,1.93,0,2.33-1.84,2.33-3.32s-.39-3.3-2.33-3.3Z"/>
  <path class="st1" d="M61.24,13c-1.07,1.07-2.7,1.5-4.42,1.5-1.48,0-3.04-.39-4.18-1.44-.83-.75-1.46-1.93-1.46-3.26h2.6c0,.69.32,1.3.73,1.72.59.59,1.54.75,2.35.75.97,0,1.89-.2,2.43-.75.32-.34.55-.67.55-1.34,0-1.03-.79-1.5-1.66-1.66-.95-.18-2.17-.22-3.1-.37-1.93-.32-3.55-1.58-3.55-3.91,0-1.11.49-2.03,1.22-2.76.93-.91,2.47-1.48,4.1-1.48,1.5,0,2.96.47,3.91,1.36.83.79,1.4,1.82,1.42,2.98h-2.6c-.02-.49-.28-1.03-.61-1.38-.45-.47-1.38-.75-2.13-.75-.79,0-1.7.18-2.27.77-.3.32-.47.67-.47,1.18,0,.91.59,1.38,1.42,1.52.89.14,2.13.24,3.04.36,2.09.3,3.85,1.66,3.85,4.05,0,1.3-.47,2.23-1.16,2.92Z"/>
  <path class="st1" d="M69.39,16c-.51,1.34-1.36,2.57-3.16,2.57-.81,0-1.36-.12-1.89-.26v-2.05c.65.12.83.18,1.38.18.45,0,.93-.16,1.18-.77l.59-1.44-4.05-10.24h2.7l2.68,7.42,2.57-7.42h2.51l-4.52,12.02Z"/>
  <path class="st1" d="M82.34,13.32c-.83.83-2.11,1.18-3.51,1.18-1.3,0-2.47-.37-3.32-1.18-.59-.57-1.09-1.42-1.09-2.39h2.31c0,.45.24.95.55,1.2.39.32.85.45,1.56.45.83,0,2.09-.18,2.09-1.3,0-.59-.39-.99-1.03-1.09-.91-.14-1.93-.2-2.84-.39-1.4-.3-2.35-1.44-2.35-2.74,0-1.05.43-1.78,1.05-2.31.75-.65,1.84-1.03,3.12-1.03s2.47.39,3.22,1.2c.55.59.91,1.36.91,2.11h-2.35c0-.39-.18-.71-.41-.97-.3-.3-.83-.47-1.34-.47-.36,0-.69,0-1.07.16-.43.18-.79.55-.79,1.09,0,.73.63.95,1.18,1.03.93.12,1.18.14,2.19.3,1.62.26,2.8,1.28,2.8,2.9,0,.99-.36,1.72-.89,2.25Z"/>
  <path class="st1" d="M89.13,14.39c-2.07,0-3.1-1.18-3.1-3.16v-5.21h-1.87v-2.03h1.87V1.38l2.47-.61v3.22h2.58v2.03h-2.58v4.99c0,.79.35,1.12,1.14,1.12.51,0,.93-.02,1.6-.1v2.07c-.69.18-1.38.28-2.11.28Z"/>
  <path class="st1" d="M101.8,9.89h-6.87c-.02.79.26,1.54.75,2.01.36.34.85.63,1.52.63.71,0,1.14-.14,1.5-.49.22-.22.39-.49.49-.87h2.37c-.06.61-.47,1.42-.87,1.89-.87,1.03-2.15,1.44-3.45,1.44-1.4,0-2.43-.49-3.24-1.26-1.03-.99-1.58-2.43-1.58-4.1s.49-3.1,1.48-4.1c.77-.79,1.87-1.3,3.28-1.3,1.52,0,2.9.61,3.75,1.89.75,1.12.93,2.29.89,3.57,0,0-.02.47-.02.69ZM98.72,6.3c-.34-.36-.85-.59-1.56-.59-.75,0-1.36.32-1.72.79-.36.45-.51.93-.53,1.6h4.44c-.02-.77-.24-1.36-.63-1.8Z"/>
  <path class="st1" d="M116.23,14.25v-6.37c0-1.26-.34-1.99-1.58-1.99-1.4,0-2.01,1.48-2.01,2.76v5.6h-2.45v-6.37c0-1.26-.34-1.99-1.58-1.99-1.4,0-2.03,1.48-2.03,2.76v5.6h-2.45V3.99h2.05l.2,1.36c.57-.95,1.56-1.62,2.92-1.62,1.44,0,2.43.63,2.94,1.68.61-1.07,1.72-1.68,3.1-1.68,2.19,0,3.34,1.46,3.34,3.59v6.93h-2.45Z"/>
  <path class="st0" d="M10.8,36.03l-1.44-3.75H2.48l-1.4,3.75H0l5.39-14.2h1.02l5.45,14.2h-1.06ZM5.89,23.27l-3.03,8.03h6.11l-3.08-8.03Z"/>
  <path class="st0" d="M14.19,36.03v-14.2h1.06v14.2h-1.06Z"/>
  <path class="st0" d="M28.82,30.2h-3.89v5.83h-1.04v-14.2h4.93c2.73,0,4.73,1.32,4.73,4.19s-2,4.19-4.73,4.19ZM28.82,22.83h-3.89v6.37h3.89c2.08,0,3.65-.96,3.65-3.19s-1.56-3.19-3.65-3.19Z"/>
  <path class="st0" d="M40.29,26.88c-2.5,0-3.19,2.24-3.19,4.35v4.81h-1v-10.02h.88l.12,2.02c.44-1.38,1.78-2.12,3.19-2.12.32,0,.66,0,.98.06v1c-.32-.08-.66-.1-.98-.1Z"/>
  <path class="st0" d="M51.33,31.27h-7.65c.02,1.16.4,2.24,1.04,3,.56.66,1.34,1.06,2.42,1.06.88,0,1.64-.32,2.18-.88.36-.38.64-.82.76-1.42h1.04c-.14.86-.56,1.56-1.12,2.1-.72.72-1.72,1.16-2.86,1.16-1.44,0-2.46-.6-3.19-1.42-.82-.96-1.28-2.28-1.28-3.81,0-1.26.2-2.5.98-3.57.84-1.14,2-1.74,3.41-1.74,2.7,0,4.29,2.32,4.29,4.85,0,.24-.02.42-.02.66ZM47.06,26.7c-2.06,0-3.37,1.66-3.37,3.65h6.63c-.04-1.9-1.22-3.65-3.27-3.65Z"/>
  <path class="st0" d="M60.81,35.09c-.72.8-1.92,1.2-3.25,1.2s-2.52-.42-3.29-1.28c-.56-.64-.8-1.2-.84-2.02h1.02c.06.6.32,1.12.74,1.54.58.56,1.4.8,2.36.8,1.04,0,1.86-.24,2.36-.74.36-.36.54-.7.54-1.28,0-.9-.64-1.66-1.84-1.82l-1.94-.26c-.82-.1-1.7-.36-2.26-1-.36-.42-.56-.94-.56-1.58,0-.8.34-1.46.86-1.94.72-.66,1.7-.94,2.74-.94,1.2,0,2.34.38,3.03,1.18.46.54.74,1.2.76,1.84h-1c-.04-.32-.18-.82-.5-1.2-.46-.54-1.24-.88-2.28-.88-.78,0-1.36.14-1.8.46-.5.36-.78.84-.78,1.38,0,.84.42,1.48,1.94,1.68l1.9.26c1.88.26,2.76,1.54,2.76,2.77,0,.74-.24,1.34-.68,1.84Z"/>
  <path class="st0" d="M72.4,31.27h-7.65c.02,1.16.4,2.24,1.04,3,.56.66,1.34,1.06,2.42,1.06.88,0,1.64-.32,2.18-.88.36-.38.64-.82.76-1.42h1.04c-.14.86-.56,1.56-1.12,2.1-.72.72-1.72,1.16-2.86,1.16-1.44,0-2.46-.6-3.19-1.42-.82-.96-1.28-2.28-1.28-3.81,0-1.26.2-2.5.98-3.57.84-1.14,2-1.74,3.41-1.74,2.7,0,4.29,2.32,4.29,4.85,0,.24-.02.42-.02.66ZM68.13,26.7c-2.06,0-3.37,1.66-3.37,3.65h6.63c-.04-1.9-1.22-3.65-3.27-3.65Z"/>
  <path class="st0" d="M82.32,36.03v-6.55c0-1.74-.76-2.74-2.58-2.74-2.46,0-3.33,2.12-3.33,4.29v5.01h-1v-10.02h.88l.12,1.82c.56-1.26,1.98-2.08,3.39-2.08,2.3,0,3.53,1.42,3.53,3.67v6.61h-1Z"/>
  <path class="st0" d="M90.58,36.29c-1.24,0-2.24-.48-2.95-1.18-1.04-1.04-1.4-2.38-1.4-4.09s.36-3.04,1.4-4.09c.7-.7,1.7-1.18,2.95-1.18,2.08,0,3.63,1.36,3.87,3.39h-1.04c-.22-1.38-1.3-2.4-2.82-2.4-.96,0-1.7.32-2.22.86-.9.94-1.1,2.12-1.1,3.43s.2,2.5,1.1,3.45c.52.54,1.26.84,2.22.84,1.54,0,2.6-1.08,2.84-2.44h1.06c-.26,1.94-1.8,3.43-3.91,3.43Z"/>
  <path class="st0" d="M105.15,31.27h-7.65c.02,1.16.4,2.24,1.04,3,.56.66,1.34,1.06,2.42,1.06.88,0,1.64-.32,2.18-.88.36-.38.64-.82.76-1.42h1.04c-.14.86-.56,1.56-1.12,2.1-.72.72-1.72,1.16-2.86,1.16-1.44,0-2.46-.6-3.19-1.42-.82-.96-1.28-2.28-1.28-3.81,0-1.26.2-2.5.98-3.57.84-1.14,2-1.74,3.41-1.74,2.7,0,4.29,2.32,4.29,4.85,0,.24-.02.42-.02.66ZM100.89,26.7c-2.06,0-3.37,1.66-3.37,3.65h6.63c-.04-1.9-1.22-3.65-3.27-3.65Z"/>
  <path class="st0" d="M112.65,36.03v-14.2h1.06v14.2h-1.06Z"/>
  <path class="st0" d="M124.78,36.03v-6.55c0-1.74-.76-2.74-2.58-2.74-2.46,0-3.33,2.12-3.33,4.29v5.01h-1v-10.02h.88l.12,1.82c.56-1.26,1.98-2.08,3.39-2.08,2.3,0,3.53,1.42,3.53,3.67v6.61h-1Z"/>
  <path class="st0" d="M136.4,36.03l-.12-1.76c-.54,1.24-1.98,2.02-3.33,2.02-1.14,0-2-.36-2.66-.94-1.12-.98-1.64-2.58-1.64-4.31s.5-3.25,1.56-4.25c.66-.64,1.56-1.04,2.73-1.04,1.42,0,2.81.8,3.35,1.94v-6.13h1v14.46h-.88ZM135.04,27.52c-.5-.48-1.18-.78-2.1-.78s-1.62.34-2.14.88c-.78.84-1.12,2.12-1.12,3.41,0,1.42.4,2.77,1.32,3.59.5.44,1.14.7,1.98.7s1.54-.32,2.04-.8c.9-.88,1.28-2.1,1.28-3.49,0-1.48-.34-2.64-1.26-3.51Z"/>
  <path class="st0" d="M149.05,31.27h-7.65c.02,1.16.4,2.24,1.04,3,.56.66,1.34,1.06,2.42,1.06.88,0,1.64-.32,2.18-.88.36-.38.64-.82.76-1.42h1.04c-.14.86-.56,1.56-1.12,2.1-.72.72-1.72,1.16-2.87,1.16-1.44,0-2.46-.6-3.18-1.42-.82-.96-1.28-2.28-1.28-3.81,0-1.26.2-2.5.98-3.57.84-1.14,2-1.74,3.41-1.74,2.7,0,4.29,2.32,4.29,4.85,0,.24-.02.42-.02.66ZM144.78,26.7c-2.06,0-3.37,1.66-3.37,3.65h6.63c-.04-1.9-1.22-3.65-3.27-3.65Z"/>
  <path class="st0" d="M157.69,36.03l-3.09-4.47-3.1,4.47h-1.18l3.61-5.19-3.55-4.95h1.2l3.05,4.29,3.07-4.29h1.16l-3.57,4.95,3.61,5.19h-1.2Z"/>
</svg>
